<mxfile modified="2020-04-10T09:56:25.266Z" host="app.diagrams.net" agent="Mozilla/5.0 (Windows NT 10.0; Win64; x64) AppleWebKit/537.36 (KHTML, like Gecko) Chrome/80.0.3987.149 Safari/537.36" etag="CMAE9er0RNlT3uoej0ER" version="12.8.8" type="github" pages="6">
  <diagram id="UARHDE4A7T2oJiNUxsZq" name="1">
    <mxGraphModel dx="2858" dy="1019" grid="1" gridSize="10" guides="1" tooltips="1" connect="1" arrows="1" fold="1" page="1" pageScale="1" pageWidth="827" pageHeight="1169" math="0" shadow="0">
      <root>
        <mxCell id="7faxEbcUE4l3kOw73fgy-0" />
        <mxCell id="7faxEbcUE4l3kOw73fgy-1" parent="7faxEbcUE4l3kOw73fgy-0" />
        <mxCell id="7faxEbcUE4l3kOw73fgy-2" value="货币" style="rounded=1;whiteSpace=wrap;html=1;fillColor=#ffe6cc;strokeColor=#d79b00;" parent="7faxEbcUE4l3kOw73fgy-1" vertex="1">
          <mxGeometry x="220" y="90" width="120" height="60" as="geometry" />
        </mxCell>
        <mxCell id="lnu6MyFQTtun7iFtReVU-16" value="" style="edgeStyle=orthogonalEdgeStyle;rounded=0;orthogonalLoop=1;jettySize=auto;html=1;" edge="1" parent="7faxEbcUE4l3kOw73fgy-1" source="lnu6MyFQTtun7iFtReVU-0" target="lnu6MyFQTtun7iFtReVU-15">
          <mxGeometry relative="1" as="geometry" />
        </mxCell>
        <mxCell id="lnu6MyFQTtun7iFtReVU-0" value="升值" style="rounded=1;whiteSpace=wrap;html=1;fillColor=#f8cecc;strokeColor=#b85450;" vertex="1" parent="7faxEbcUE4l3kOw73fgy-1">
          <mxGeometry x="430" y="40" width="120" height="60" as="geometry" />
        </mxCell>
        <mxCell id="lnu6MyFQTtun7iFtReVU-15" value="通货紧缩" style="rounded=1;whiteSpace=wrap;html=1;fillColor=#f8cecc;strokeColor=#b85450;" vertex="1" parent="7faxEbcUE4l3kOw73fgy-1">
          <mxGeometry x="630" y="40" width="120" height="60" as="geometry" />
        </mxCell>
        <mxCell id="lnu6MyFQTtun7iFtReVU-5" value="" style="edgeStyle=orthogonalEdgeStyle;rounded=0;orthogonalLoop=1;jettySize=auto;html=1;" edge="1" parent="7faxEbcUE4l3kOw73fgy-1" source="lnu6MyFQTtun7iFtReVU-1" target="lnu6MyFQTtun7iFtReVU-4">
          <mxGeometry relative="1" as="geometry" />
        </mxCell>
        <mxCell id="lnu6MyFQTtun7iFtReVU-1" value="贬值" style="rounded=1;whiteSpace=wrap;html=1;fillColor=#d5e8d4;strokeColor=#82b366;" vertex="1" parent="7faxEbcUE4l3kOw73fgy-1">
          <mxGeometry x="430" y="120" width="120" height="60" as="geometry" />
        </mxCell>
        <mxCell id="lnu6MyFQTtun7iFtReVU-4" value="通货膨胀" style="rounded=1;whiteSpace=wrap;html=1;fillColor=#d5e8d4;strokeColor=#82b366;" vertex="1" parent="7faxEbcUE4l3kOw73fgy-1">
          <mxGeometry x="630" y="130" width="120" height="40" as="geometry" />
        </mxCell>
        <mxCell id="lnu6MyFQTtun7iFtReVU-2" value="国际收支平衡" style="rounded=1;whiteSpace=wrap;html=1;fillColor=#f5f5f5;strokeColor=#666666;fontColor=#333333;" vertex="1" parent="7faxEbcUE4l3kOw73fgy-1">
          <mxGeometry x="220" y="230" width="120" height="60" as="geometry" />
        </mxCell>
        <mxCell id="lnu6MyFQTtun7iFtReVU-3" value="广场协议" style="rounded=1;whiteSpace=wrap;html=1;fillColor=#d5e8d4;strokeColor=#82b366;" vertex="1" parent="7faxEbcUE4l3kOw73fgy-1">
          <mxGeometry x="430" y="270" width="120" height="40" as="geometry" />
        </mxCell>
        <mxCell id="lnu6MyFQTtun7iFtReVU-18" style="edgeStyle=orthogonalEdgeStyle;rounded=0;orthogonalLoop=1;jettySize=auto;html=1;exitX=0.5;exitY=0;exitDx=0;exitDy=0;entryX=0.5;entryY=1;entryDx=0;entryDy=0;" edge="1" parent="7faxEbcUE4l3kOw73fgy-1" source="lnu6MyFQTtun7iFtReVU-17" target="lnu6MyFQTtun7iFtReVU-4">
          <mxGeometry relative="1" as="geometry" />
        </mxCell>
        <mxCell id="lnu6MyFQTtun7iFtReVU-17" value="&lt;span style=&quot;text-align: left ; white-space: nowrap&quot;&gt;CPI（消费者价格指数)&lt;/span&gt;" style="rounded=1;whiteSpace=wrap;html=1;fillColor=#d5e8d4;strokeColor=#82b366;" vertex="1" parent="7faxEbcUE4l3kOw73fgy-1">
          <mxGeometry x="630" y="240" width="120" height="40" as="geometry" />
        </mxCell>
        <mxCell id="lnu6MyFQTtun7iFtReVU-20" value="" style="endArrow=classic;html=1;exitX=1;exitY=0.5;exitDx=0;exitDy=0;entryX=0;entryY=0.5;entryDx=0;entryDy=0;" edge="1" parent="7faxEbcUE4l3kOw73fgy-1" source="7faxEbcUE4l3kOw73fgy-2" target="lnu6MyFQTtun7iFtReVU-0">
          <mxGeometry width="50" height="50" relative="1" as="geometry">
            <mxPoint x="390" y="200" as="sourcePoint" />
            <mxPoint x="440" y="150" as="targetPoint" />
            <Array as="points">
              <mxPoint x="370" y="80" />
            </Array>
          </mxGeometry>
        </mxCell>
        <mxCell id="lnu6MyFQTtun7iFtReVU-21" value="" style="endArrow=classic;html=1;exitX=1;exitY=0.5;exitDx=0;exitDy=0;entryX=0;entryY=0.5;entryDx=0;entryDy=0;" edge="1" parent="7faxEbcUE4l3kOw73fgy-1" source="7faxEbcUE4l3kOw73fgy-2" target="lnu6MyFQTtun7iFtReVU-1">
          <mxGeometry width="50" height="50" relative="1" as="geometry">
            <mxPoint x="350" y="130" as="sourcePoint" />
            <mxPoint x="440" y="80" as="targetPoint" />
            <Array as="points">
              <mxPoint x="370" y="150" />
            </Array>
          </mxGeometry>
        </mxCell>
        <mxCell id="lnu6MyFQTtun7iFtReVU-28" value="" style="edgeStyle=orthogonalEdgeStyle;rounded=0;orthogonalLoop=1;jettySize=auto;html=1;fillColor=#f8cecc;strokeColor=#b85450;" edge="1" parent="7faxEbcUE4l3kOw73fgy-1" source="lnu6MyFQTtun7iFtReVU-22" target="lnu6MyFQTtun7iFtReVU-27">
          <mxGeometry relative="1" as="geometry" />
        </mxCell>
        <mxCell id="lnu6MyFQTtun7iFtReVU-22" value="日本房产、股市经济泡沫" style="rounded=1;whiteSpace=wrap;html=1;fillColor=#f8cecc;strokeColor=#b85450;" vertex="1" parent="7faxEbcUE4l3kOw73fgy-1">
          <mxGeometry x="180" y="490" width="120" height="40" as="geometry" />
        </mxCell>
        <mxCell id="lnu6MyFQTtun7iFtReVU-30" value="" style="edgeStyle=orthogonalEdgeStyle;rounded=0;orthogonalLoop=1;jettySize=auto;html=1;fillColor=#f8cecc;strokeColor=#b85450;" edge="1" parent="7faxEbcUE4l3kOw73fgy-1" source="lnu6MyFQTtun7iFtReVU-27" target="lnu6MyFQTtun7iFtReVU-29">
          <mxGeometry relative="1" as="geometry" />
        </mxCell>
        <mxCell id="lnu6MyFQTtun7iFtReVU-27" value="泡沫破灭" style="rounded=1;whiteSpace=wrap;html=1;fillColor=#f8cecc;strokeColor=#b85450;" vertex="1" parent="7faxEbcUE4l3kOw73fgy-1">
          <mxGeometry x="180" y="570" width="120" height="40" as="geometry" />
        </mxCell>
        <mxCell id="lnu6MyFQTtun7iFtReVU-29" value="经济低增长/通货紧缩" style="rounded=1;whiteSpace=wrap;html=1;fillColor=#f8cecc;strokeColor=#b85450;" vertex="1" parent="7faxEbcUE4l3kOw73fgy-1">
          <mxGeometry x="180" y="660" width="120" height="40" as="geometry" />
        </mxCell>
        <mxCell id="lnu6MyFQTtun7iFtReVU-26" style="edgeStyle=orthogonalEdgeStyle;rounded=0;orthogonalLoop=1;jettySize=auto;html=1;exitX=0.5;exitY=1;exitDx=0;exitDy=0;fillColor=#f8cecc;strokeColor=#b85450;" edge="1" parent="7faxEbcUE4l3kOw73fgy-1" source="lnu6MyFQTtun7iFtReVU-25" target="lnu6MyFQTtun7iFtReVU-22">
          <mxGeometry relative="1" as="geometry" />
        </mxCell>
        <mxCell id="lnu6MyFQTtun7iFtReVU-25" value="放松货币政策" style="rounded=1;whiteSpace=wrap;html=1;fillColor=#f8cecc;strokeColor=#b85450;" vertex="1" parent="7faxEbcUE4l3kOw73fgy-1">
          <mxGeometry x="180" y="390" width="120" height="40" as="geometry" />
        </mxCell>
        <mxCell id="lnu6MyFQTtun7iFtReVU-33" value="" style="edgeStyle=orthogonalEdgeStyle;rounded=0;orthogonalLoop=1;jettySize=auto;html=1;" edge="1" parent="7faxEbcUE4l3kOw73fgy-1" source="lnu6MyFQTtun7iFtReVU-31" target="lnu6MyFQTtun7iFtReVU-32">
          <mxGeometry relative="1" as="geometry" />
        </mxCell>
        <mxCell id="lnu6MyFQTtun7iFtReVU-31" value="&lt;font style=&quot;font-size: 18px&quot;&gt;广场协议&lt;/font&gt;&lt;br&gt;美元下跌&lt;br&gt;日元(1:120)升值" style="rounded=1;whiteSpace=wrap;html=1;fillColor=#f8cecc;strokeColor=#b85450;" vertex="1" parent="7faxEbcUE4l3kOw73fgy-1">
          <mxGeometry x="-200" y="380" width="120" height="60" as="geometry" />
        </mxCell>
        <mxCell id="lnu6MyFQTtun7iFtReVU-34" style="edgeStyle=orthogonalEdgeStyle;rounded=0;orthogonalLoop=1;jettySize=auto;html=1;exitX=1;exitY=0.5;exitDx=0;exitDy=0;" edge="1" parent="7faxEbcUE4l3kOw73fgy-1" source="lnu6MyFQTtun7iFtReVU-32" target="lnu6MyFQTtun7iFtReVU-25">
          <mxGeometry relative="1" as="geometry" />
        </mxCell>
        <mxCell id="lnu6MyFQTtun7iFtReVU-32" value="打击日本出口企业" style="rounded=1;whiteSpace=wrap;html=1;fillColor=#f8cecc;strokeColor=#b85450;" vertex="1" parent="7faxEbcUE4l3kOw73fgy-1">
          <mxGeometry x="-30" y="390" width="120" height="40" as="geometry" />
        </mxCell>
        <mxCell id="UnUvOKA1YaDc-66_rXGn-5" style="edgeStyle=orthogonalEdgeStyle;rounded=0;orthogonalLoop=1;jettySize=auto;html=1;exitX=1;exitY=0.5;exitDx=0;exitDy=0;entryX=0;entryY=0.5;entryDx=0;entryDy=0;" edge="1" parent="7faxEbcUE4l3kOw73fgy-1" source="UnUvOKA1YaDc-66_rXGn-0" target="lnu6MyFQTtun7iFtReVU-31">
          <mxGeometry relative="1" as="geometry" />
        </mxCell>
        <mxCell id="UnUvOKA1YaDc-66_rXGn-0" value="美国贸易赤字&lt;br&gt;原因：汇率过高(1:240)" style="rounded=1;whiteSpace=wrap;html=1;fillColor=#f8cecc;strokeColor=#b85450;" vertex="1" parent="7faxEbcUE4l3kOw73fgy-1">
          <mxGeometry x="-380" y="390" width="120" height="40" as="geometry" />
        </mxCell>
        <mxCell id="UnUvOKA1YaDc-66_rXGn-1" value="" style="ellipse;whiteSpace=wrap;html=1;" vertex="1" parent="7faxEbcUE4l3kOw73fgy-1">
          <mxGeometry x="-370" y="270" width="120" height="80" as="geometry" />
        </mxCell>
        <mxCell id="UnUvOKA1YaDc-66_rXGn-2" value="" style="shape=flexArrow;endArrow=classic;html=1;width=4.761904761904762;endSize=3.4238095238095236;endWidth=9.160997732426303;" edge="1" parent="7faxEbcUE4l3kOw73fgy-1">
          <mxGeometry width="50" height="50" relative="1" as="geometry">
            <mxPoint x="-260" y="290" as="sourcePoint" />
            <mxPoint x="-240" y="270" as="targetPoint" />
          </mxGeometry>
        </mxCell>
        <mxCell id="UnUvOKA1YaDc-66_rXGn-4" value="" style="shape=flexArrow;endArrow=classic;html=1;endWidth=21.666666666666668;endSize=5.344444444444444;" edge="1" parent="7faxEbcUE4l3kOw73fgy-1" target="UnUvOKA1YaDc-66_rXGn-1">
          <mxGeometry width="50" height="50" relative="1" as="geometry">
            <mxPoint x="-210" y="297" as="sourcePoint" />
            <mxPoint x="-100" y="330" as="targetPoint" />
          </mxGeometry>
        </mxCell>
      </root>
    </mxGraphModel>
  </diagram>
  <diagram id="DyQ6zrXTj0XRDzrEO7I7" name="c++">
    <mxGraphModel dx="2858" dy="1019" grid="1" gridSize="10" guides="1" tooltips="1" connect="1" arrows="1" fold="1" page="1" pageScale="1" pageWidth="827" pageHeight="1169" math="0" shadow="0">
      <root>
        <mxCell id="SgliGd1d5dcwbvXN8RW5-0" />
        <mxCell id="SgliGd1d5dcwbvXN8RW5-1" parent="SgliGd1d5dcwbvXN8RW5-0" />
        <mxCell id="SgliGd1d5dcwbvXN8RW5-4" value="&lt;ul style=&quot;text-align: left ; margin-top: 0px ; margin-bottom: 0px ; margin-left: 0px ; padding-left: 20px ; color: rgb(51 , 51 , 51) ; font-size: 14px ; background-color: rgb(238 , 238 , 238)&quot;&gt;&lt;li&gt;ifstream类，它是从istream类派生的，用来支持从磁盘文件的输入。&lt;/li&gt;&lt;li&gt;ofstream类，它是从ostream类派生的，用来支持向磁盘文件的输出。&lt;/li&gt;&lt;li&gt;fstream类，它是从iostream类派生的，用来支持对磁盘文件的输入输出&lt;/li&gt;&lt;/ul&gt;" style="text;html=1;strokeColor=none;fillColor=none;align=center;verticalAlign=middle;whiteSpace=wrap;rounded=0;" parent="SgliGd1d5dcwbvXN8RW5-1" vertex="1">
          <mxGeometry x="87" y="390" width="574" height="70" as="geometry" />
        </mxCell>
        <mxCell id="SgliGd1d5dcwbvXN8RW5-9" style="edgeStyle=orthogonalEdgeStyle;rounded=0;orthogonalLoop=1;jettySize=auto;html=1;exitX=0.5;exitY=0;exitDx=0;exitDy=0;entryX=0.595;entryY=0.987;entryDx=0;entryDy=0;entryPerimeter=0;startArrow=none;startFill=0;endArrow=block;endFill=0;fillColor=#f5f5f5;strokeColor=#666666;shadow=1;comic=0;fontSize=36;strokeWidth=3;" parent="SgliGd1d5dcwbvXN8RW5-1" source="SgliGd1d5dcwbvXN8RW5-5" target="SgliGd1d5dcwbvXN8RW5-21" edge="1">
          <mxGeometry relative="1" as="geometry">
            <mxPoint x="175.28571428571422" y="666.7857142857143" as="targetPoint" />
            <Array as="points">
              <mxPoint x="170" y="821" />
            </Array>
          </mxGeometry>
        </mxCell>
        <mxCell id="SgliGd1d5dcwbvXN8RW5-5" value="ifstream" style="text;html=1;align=center;verticalAlign=middle;whiteSpace=wrap;rounded=1;fillColor=#f5f5f5;strokeColor=#666666;fontColor=#333333;shadow=1;comic=0;fontSize=36;strokeWidth=3;" parent="SgliGd1d5dcwbvXN8RW5-1" vertex="1">
          <mxGeometry x="94" y="821.5" width="160" height="41" as="geometry" />
        </mxCell>
        <mxCell id="SgliGd1d5dcwbvXN8RW5-27" style="edgeStyle=orthogonalEdgeStyle;rounded=0;comic=0;orthogonalLoop=1;jettySize=auto;html=1;exitX=0.5;exitY=0;exitDx=0;exitDy=0;entryX=0.581;entryY=1.028;entryDx=0;entryDy=0;entryPerimeter=0;shadow=1;startArrow=none;startFill=0;endArrow=block;endFill=0;strokeColor=#808080;strokeWidth=3;fontSize=36;" parent="SgliGd1d5dcwbvXN8RW5-1" source="SgliGd1d5dcwbvXN8RW5-6" target="SgliGd1d5dcwbvXN8RW5-10" edge="1">
          <mxGeometry relative="1" as="geometry" />
        </mxCell>
        <mxCell id="SgliGd1d5dcwbvXN8RW5-6" value="ofstream" style="text;html=1;align=center;verticalAlign=middle;whiteSpace=wrap;rounded=1;fillColor=#f5f5f5;strokeColor=#666666;fontColor=#333333;shadow=1;comic=0;fontSize=36;strokeWidth=3;" parent="SgliGd1d5dcwbvXN8RW5-1" vertex="1">
          <mxGeometry x="500" y="816.5" width="170" height="41" as="geometry" />
        </mxCell>
        <mxCell id="SgliGd1d5dcwbvXN8RW5-13" style="edgeStyle=orthogonalEdgeStyle;rounded=0;orthogonalLoop=1;jettySize=auto;html=1;exitX=0.5;exitY=0;exitDx=0;exitDy=0;entryX=0.5;entryY=1;entryDx=0;entryDy=0;startArrow=none;startFill=0;endArrow=block;endFill=0;fillColor=#f5f5f5;strokeColor=#666666;shadow=1;comic=0;fontSize=36;strokeWidth=3;" parent="SgliGd1d5dcwbvXN8RW5-1" source="SgliGd1d5dcwbvXN8RW5-7" target="SgliGd1d5dcwbvXN8RW5-15" edge="1">
          <mxGeometry relative="1" as="geometry">
            <mxPoint x="313.2222222222222" y="764.4444444444445" as="targetPoint" />
          </mxGeometry>
        </mxCell>
        <mxCell id="SgliGd1d5dcwbvXN8RW5-7" value="fstream" style="text;html=1;align=center;verticalAlign=middle;whiteSpace=wrap;rounded=1;fillColor=#f5f5f5;strokeColor=#666666;fontColor=#333333;shadow=1;comic=0;fontSize=36;strokeWidth=3;" parent="SgliGd1d5dcwbvXN8RW5-1" vertex="1">
          <mxGeometry x="293.5" y="816.5" width="150" height="41" as="geometry" />
        </mxCell>
        <mxCell id="SgliGd1d5dcwbvXN8RW5-10" value="ostream" style="text;html=1;align=center;verticalAlign=middle;whiteSpace=wrap;rounded=1;fillColor=#f5f5f5;strokeColor=#666666;fontColor=#333333;shadow=1;comic=0;fontSize=36;strokeWidth=3;" parent="SgliGd1d5dcwbvXN8RW5-1" vertex="1">
          <mxGeometry x="495.5" y="501" width="157" height="41" as="geometry" />
        </mxCell>
        <mxCell id="SgliGd1d5dcwbvXN8RW5-25" style="edgeStyle=orthogonalEdgeStyle;rounded=0;comic=0;orthogonalLoop=1;jettySize=auto;html=1;exitX=0.25;exitY=0;exitDx=0;exitDy=0;entryX=0.75;entryY=1;entryDx=0;entryDy=0;shadow=1;startArrow=none;startFill=0;endArrow=block;endFill=0;strokeColor=#808080;strokeWidth=3;fontSize=36;" parent="SgliGd1d5dcwbvXN8RW5-1" source="SgliGd1d5dcwbvXN8RW5-15" target="SgliGd1d5dcwbvXN8RW5-21" edge="1">
          <mxGeometry relative="1" as="geometry" />
        </mxCell>
        <mxCell id="SgliGd1d5dcwbvXN8RW5-26" style="edgeStyle=orthogonalEdgeStyle;rounded=0;comic=0;orthogonalLoop=1;jettySize=auto;html=1;exitX=0.75;exitY=0;exitDx=0;exitDy=0;entryX=0.25;entryY=1;entryDx=0;entryDy=0;shadow=1;startArrow=none;startFill=0;endArrow=block;endFill=0;strokeColor=#808080;strokeWidth=3;fontSize=36;" parent="SgliGd1d5dcwbvXN8RW5-1" source="SgliGd1d5dcwbvXN8RW5-15" target="SgliGd1d5dcwbvXN8RW5-10" edge="1">
          <mxGeometry relative="1" as="geometry" />
        </mxCell>
        <mxCell id="SgliGd1d5dcwbvXN8RW5-15" value="&lt;span style=&quot;text-align: left; white-space: nowrap; font-size: 36px;&quot;&gt;iostream&lt;/span&gt;" style="text;html=1;align=center;verticalAlign=middle;whiteSpace=wrap;rounded=1;fillColor=#f5f5f5;strokeColor=#666666;fontColor=#333333;shadow=1;comic=0;fontSize=36;strokeWidth=3;" parent="SgliGd1d5dcwbvXN8RW5-1" vertex="1">
          <mxGeometry x="298.5" y="696.5" width="140" height="41" as="geometry" />
        </mxCell>
        <mxCell id="SgliGd1d5dcwbvXN8RW5-21" value="&lt;span style=&quot;text-align: left ; white-space: nowrap&quot;&gt;istream&lt;/span&gt;" style="text;html=1;align=center;verticalAlign=middle;whiteSpace=wrap;rounded=1;fillColor=#f5f5f5;strokeColor=#666666;fontColor=#333333;shadow=1;comic=0;fontSize=36;strokeWidth=3;" parent="SgliGd1d5dcwbvXN8RW5-1" vertex="1">
          <mxGeometry x="86.5" y="505" width="140" height="41" as="geometry" />
        </mxCell>
        <mxCell id="SgliGd1d5dcwbvXN8RW5-28" value="stack" style="rounded=1;whiteSpace=wrap;html=1;shadow=1;strokeWidth=3;fontSize=36;fillColor=#d5e8d4;strokeColor=#82b366;" parent="SgliGd1d5dcwbvXN8RW5-1" vertex="1">
          <mxGeometry x="-203" y="1290" width="120" height="60" as="geometry" />
        </mxCell>
        <mxCell id="SgliGd1d5dcwbvXN8RW5-29" value="queue" style="rounded=1;whiteSpace=wrap;html=1;shadow=1;strokeWidth=3;fontSize=36;fillColor=#d5e8d4;strokeColor=#82b366;" parent="SgliGd1d5dcwbvXN8RW5-1" vertex="1">
          <mxGeometry x="-67" y="1290" width="120" height="60" as="geometry" />
        </mxCell>
        <mxCell id="SgliGd1d5dcwbvXN8RW5-30" value="priority_queue" style="rounded=1;whiteSpace=wrap;html=1;shadow=1;strokeWidth=3;fontSize=36;fillColor=#d5e8d4;strokeColor=#82b366;" parent="SgliGd1d5dcwbvXN8RW5-1" vertex="1">
          <mxGeometry x="83" y="1290" width="260" height="60" as="geometry" />
        </mxCell>
        <mxCell id="SgliGd1d5dcwbvXN8RW5-31" value="&lt;span style=&quot;text-align: left ; white-space: nowrap&quot;&gt;array&amp;lt;T,N&amp;gt;&lt;/span&gt;" style="rounded=1;whiteSpace=wrap;html=1;shadow=1;strokeWidth=3;fontSize=36;fillColor=#ffe6cc;strokeColor=#d79b00;" parent="SgliGd1d5dcwbvXN8RW5-1" vertex="1">
          <mxGeometry x="-207" y="1390" width="194" height="60" as="geometry" />
        </mxCell>
        <mxCell id="SgliGd1d5dcwbvXN8RW5-35" value="&lt;span style=&quot;text-align: left ; white-space: nowrap&quot;&gt;vector&amp;lt;T&amp;gt;&lt;/span&gt;" style="rounded=1;whiteSpace=wrap;html=1;shadow=1;strokeWidth=3;fontSize=36;fillColor=#ffe6cc;strokeColor=#d79b00;" parent="SgliGd1d5dcwbvXN8RW5-1" vertex="1">
          <mxGeometry x="16" y="1390" width="174" height="60" as="geometry" />
        </mxCell>
        <mxCell id="SgliGd1d5dcwbvXN8RW5-36" value="&lt;span style=&quot;text-align: left ; white-space: nowrap&quot;&gt;deque&amp;lt;T&amp;gt;&lt;/span&gt;" style="rounded=1;whiteSpace=wrap;html=1;shadow=1;strokeWidth=3;fontSize=36;fillColor=#ffe6cc;strokeColor=#d79b00;" parent="SgliGd1d5dcwbvXN8RW5-1" vertex="1">
          <mxGeometry x="236" y="1390" width="174" height="60" as="geometry" />
        </mxCell>
        <mxCell id="SgliGd1d5dcwbvXN8RW5-37" value="&lt;span style=&quot;text-align: left ; white-space: nowrap&quot;&gt;list&amp;lt;T&amp;gt;&lt;/span&gt;" style="rounded=1;whiteSpace=wrap;html=1;shadow=1;strokeWidth=3;fontSize=36;fillColor=#ffe6cc;strokeColor=#d79b00;" parent="SgliGd1d5dcwbvXN8RW5-1" vertex="1">
          <mxGeometry x="-197" y="1490" width="174" height="60" as="geometry" />
        </mxCell>
        <mxCell id="SgliGd1d5dcwbvXN8RW5-38" value="&lt;span style=&quot;text-align: left ; white-space: nowrap&quot;&gt;forward_list&amp;lt;T&amp;gt;&lt;/span&gt;" style="rounded=1;whiteSpace=wrap;html=1;shadow=1;strokeWidth=3;fontSize=36;fillColor=#ffe6cc;strokeColor=#d79b00;" parent="SgliGd1d5dcwbvXN8RW5-1" vertex="1">
          <mxGeometry x="16" y="1490" width="277" height="61" as="geometry" />
        </mxCell>
      </root>
    </mxGraphModel>
  </diagram>
  <diagram id="gY6kdDDlInlRuiRT9KZr" name="7#C#">
    <mxGraphModel dx="813" dy="409" grid="1" gridSize="10" guides="1" tooltips="1" connect="1" arrows="1" fold="1" page="1" pageScale="1" pageWidth="827" pageHeight="1169" math="0" shadow="0">
      <root>
        <mxCell id="0" />
        <mxCell id="1" parent="0" />
        <mxCell id="_EApbFjAd4uJm9sEeen3-1" value="&lt;font style=&quot;font-size: 18px&quot;&gt;MySQL&lt;/font&gt;" style="text;html=1;align=center;verticalAlign=top;whiteSpace=wrap;rounded=0;fillColor=#f5f5f5;strokeColor=#666666;fontColor=#333333;" vertex="1" parent="1">
          <mxGeometry x="140" y="133" width="540" height="487" as="geometry" />
        </mxCell>
        <mxCell id="X0SGCXLERFoyRaOcxKS4-1" value="MySqlConnection" style="rounded=1;whiteSpace=wrap;html=1;fillColor=#ffe6cc;strokeColor=#d79b00;" vertex="1" parent="1">
          <mxGeometry x="160" y="193" width="110" height="40" as="geometry" />
        </mxCell>
        <mxCell id="X0SGCXLERFoyRaOcxKS4-4" style="edgeStyle=orthogonalEdgeStyle;rounded=0;orthogonalLoop=1;jettySize=auto;html=1;exitX=0.5;exitY=0;exitDx=0;exitDy=0;entryX=0.5;entryY=1;entryDx=0;entryDy=0;" edge="1" parent="1" source="X0SGCXLERFoyRaOcxKS4-2" target="X0SGCXLERFoyRaOcxKS4-1">
          <mxGeometry relative="1" as="geometry" />
        </mxCell>
        <mxCell id="X0SGCXLERFoyRaOcxKS4-2" value="MySqlCommand" style="rounded=1;whiteSpace=wrap;html=1;fillColor=#ffe6cc;strokeColor=#d79b00;" vertex="1" parent="1">
          <mxGeometry x="160" y="283" width="110" height="40" as="geometry" />
        </mxCell>
        <mxCell id="X0SGCXLERFoyRaOcxKS4-5" style="edgeStyle=orthogonalEdgeStyle;rounded=0;orthogonalLoop=1;jettySize=auto;html=1;exitX=0.5;exitY=0;exitDx=0;exitDy=0;entryX=0.547;entryY=1;entryDx=0;entryDy=0;entryPerimeter=0;" edge="1" parent="1" source="X0SGCXLERFoyRaOcxKS4-3" target="X0SGCXLERFoyRaOcxKS4-2">
          <mxGeometry relative="1" as="geometry" />
        </mxCell>
        <mxCell id="X0SGCXLERFoyRaOcxKS4-7" style="edgeStyle=orthogonalEdgeStyle;rounded=0;orthogonalLoop=1;jettySize=auto;html=1;exitX=1;exitY=0.5;exitDx=0;exitDy=0;entryX=0;entryY=0.5;entryDx=0;entryDy=0;" edge="1" parent="1" source="X0SGCXLERFoyRaOcxKS4-3" target="X0SGCXLERFoyRaOcxKS4-8">
          <mxGeometry relative="1" as="geometry">
            <mxPoint x="330.20000000000005" y="390" as="targetPoint" />
          </mxGeometry>
        </mxCell>
        <mxCell id="X0SGCXLERFoyRaOcxKS4-3" value="MySqlDataAdapter" style="rounded=1;whiteSpace=wrap;html=1;fillColor=#ffe6cc;strokeColor=#d79b00;" vertex="1" parent="1">
          <mxGeometry x="160" y="380" width="120" height="40" as="geometry" />
        </mxCell>
        <mxCell id="X0SGCXLERFoyRaOcxKS4-8" value="DataSet" style="rounded=1;whiteSpace=wrap;html=1;fillColor=#ffe6cc;strokeColor=#d79b00;" vertex="1" parent="1">
          <mxGeometry x="330" y="380" width="120" height="40" as="geometry" />
        </mxCell>
        <mxCell id="X0SGCXLERFoyRaOcxKS4-16" style="edgeStyle=orthogonalEdgeStyle;rounded=0;orthogonalLoop=1;jettySize=auto;html=1;exitX=0.5;exitY=0;exitDx=0;exitDy=0;entryX=0.5;entryY=1;entryDx=0;entryDy=0;endFill=0;endArrow=none;startFill=0;startArrow=open;" edge="1" parent="1" source="X0SGCXLERFoyRaOcxKS4-11" target="X0SGCXLERFoyRaOcxKS4-8">
          <mxGeometry relative="1" as="geometry" />
        </mxCell>
        <mxCell id="X0SGCXLERFoyRaOcxKS4-11" value="&lt;span style=&quot;text-align: left ; white-space: nowrap&quot;&gt;DataTable&lt;/span&gt;" style="rounded=1;whiteSpace=wrap;html=1;fillColor=#ffe6cc;strokeColor=#d79b00;" vertex="1" parent="1">
          <mxGeometry x="330" y="470" width="120" height="40" as="geometry" />
        </mxCell>
        <mxCell id="X0SGCXLERFoyRaOcxKS4-14" style="edgeStyle=orthogonalEdgeStyle;rounded=0;orthogonalLoop=1;jettySize=auto;html=1;exitX=1;exitY=0.5;exitDx=0;exitDy=0;entryX=0;entryY=0.5;entryDx=0;entryDy=0;" edge="1" parent="1" source="X0SGCXLERFoyRaOcxKS4-12" target="X0SGCXLERFoyRaOcxKS4-13">
          <mxGeometry relative="1" as="geometry" />
        </mxCell>
        <mxCell id="X0SGCXLERFoyRaOcxKS4-15" style="edgeStyle=orthogonalEdgeStyle;rounded=0;orthogonalLoop=1;jettySize=auto;html=1;exitX=0.5;exitY=0;exitDx=0;exitDy=0;entryX=0.5;entryY=1;entryDx=0;entryDy=0;endArrow=none;endFill=0;startArrow=open;startFill=0;" edge="1" parent="1" source="X0SGCXLERFoyRaOcxKS4-12" target="X0SGCXLERFoyRaOcxKS4-11">
          <mxGeometry relative="1" as="geometry" />
        </mxCell>
        <mxCell id="X0SGCXLERFoyRaOcxKS4-12" value="&lt;div style=&quot;text-align: left&quot;&gt;&lt;span style=&quot;white-space: nowrap&quot;&gt;DataRowCollection&lt;/span&gt;&lt;/div&gt;" style="rounded=1;whiteSpace=wrap;html=1;fillColor=#ffe6cc;strokeColor=#d79b00;" vertex="1" parent="1">
          <mxGeometry x="330" y="550" width="120" height="40" as="geometry" />
        </mxCell>
        <mxCell id="X0SGCXLERFoyRaOcxKS4-13" value="&lt;div style=&quot;text-align: left&quot;&gt;&lt;span style=&quot;white-space: nowrap&quot;&gt;DataRow&lt;/span&gt;&lt;br&gt;&lt;/div&gt;" style="rounded=1;whiteSpace=wrap;html=1;fillColor=#ffe6cc;strokeColor=#d79b00;" vertex="1" parent="1">
          <mxGeometry x="490" y="550" width="120" height="40" as="geometry" />
        </mxCell>
        <mxCell id="X0SGCXLERFoyRaOcxKS4-17" value=".Fill" style="text;html=1;strokeColor=none;fillColor=none;align=center;verticalAlign=middle;whiteSpace=wrap;rounded=0;" vertex="1" parent="1">
          <mxGeometry x="280" y="380" width="40" height="20" as="geometry" />
        </mxCell>
        <mxCell id="X0SGCXLERFoyRaOcxKS4-19" style="edgeStyle=orthogonalEdgeStyle;rounded=0;orthogonalLoop=1;jettySize=auto;html=1;exitX=1;exitY=0.5;exitDx=0;exitDy=0;entryX=0;entryY=0.5;entryDx=0;entryDy=0;" edge="1" parent="1" source="X0SGCXLERFoyRaOcxKS4-18" target="X0SGCXLERFoyRaOcxKS4-11">
          <mxGeometry relative="1" as="geometry" />
        </mxCell>
        <mxCell id="X0SGCXLERFoyRaOcxKS4-18" value="&lt;div style=&quot;text-align: left&quot;&gt;DataTableView&lt;/div&gt;" style="rounded=1;whiteSpace=wrap;html=1;fillColor=#ffe6cc;strokeColor=#d79b00;" vertex="1" parent="1">
          <mxGeometry x="150" y="470" width="120" height="40" as="geometry" />
        </mxCell>
        <mxCell id="X0SGCXLERFoyRaOcxKS4-20" value=".Rows" style="text;html=1;strokeColor=none;fillColor=none;align=center;verticalAlign=middle;whiteSpace=wrap;rounded=0;" vertex="1" parent="1">
          <mxGeometry x="394" y="520" width="37" height="20" as="geometry" />
        </mxCell>
        <mxCell id="X0SGCXLERFoyRaOcxKS4-21" value=".Tables" style="text;html=1;" vertex="1" parent="1">
          <mxGeometry x="394" y="430" width="60" height="30" as="geometry" />
        </mxCell>
        <mxCell id="OdA-hWB81cQZfZWiC3AA-4" style="edgeStyle=orthogonalEdgeStyle;rounded=0;comic=0;orthogonalLoop=1;jettySize=auto;html=1;exitX=0.5;exitY=0;exitDx=0;exitDy=0;entryX=0.5;entryY=1;entryDx=0;entryDy=0;shadow=1;startArrow=none;startFill=0;endArrow=block;endFill=0;strokeColor=#808080;strokeWidth=3;fontSize=36;" edge="1" parent="1" source="OdA-hWB81cQZfZWiC3AA-2" target="OdA-hWB81cQZfZWiC3AA-3">
          <mxGeometry relative="1" as="geometry" />
        </mxCell>
        <mxCell id="OdA-hWB81cQZfZWiC3AA-2" value="事件" style="rounded=1;whiteSpace=wrap;html=1;shadow=1;strokeWidth=3;fontSize=36;" vertex="1" parent="1">
          <mxGeometry x="920" y="263" width="120" height="60" as="geometry" />
        </mxCell>
        <mxCell id="OdA-hWB81cQZfZWiC3AA-3" value="委托" style="rounded=1;whiteSpace=wrap;html=1;shadow=1;strokeWidth=3;fontSize=36;" vertex="1" parent="1">
          <mxGeometry x="920" y="140" width="120" height="60" as="geometry" />
        </mxCell>
        <mxCell id="OdA-hWB81cQZfZWiC3AA-6" value="&lt;font style=&quot;font-size: 12px&quot;&gt;委托是一种是数据类型&lt;br&gt;delegate void Print(string);&lt;br&gt;void main(){&lt;br&gt;&amp;nbsp; &amp;nbsp; Print print;&lt;br&gt;&amp;nbsp; &amp;nbsp; print += new Print(disp);&lt;br&gt;}&lt;br&gt;static void disp(string s){&lt;br&gt;&amp;nbsp; &amp;nbsp; &amp;nbsp;Console.Writeln(s);&lt;br&gt;}&lt;/font&gt;" style="text;html=1;strokeColor=#d79b00;fillColor=#ffe6cc;align=left;verticalAlign=middle;whiteSpace=wrap;rounded=0;shadow=1;fontSize=16;" vertex="1" parent="1">
          <mxGeometry x="1060" y="133" width="250" height="187" as="geometry" />
        </mxCell>
        <mxCell id="OdA-hWB81cQZfZWiC3AA-7" value="&lt;span style=&quot;font-size: 12px&quot;&gt;事件可用于程序解耦&lt;/span&gt;" style="text;html=1;strokeColor=#d79b00;fillColor=#ffe6cc;align=left;verticalAlign=middle;whiteSpace=wrap;rounded=0;shadow=1;fontSize=16;" vertex="1" parent="1">
          <mxGeometry x="920" y="343" width="410" height="37" as="geometry" />
        </mxCell>
      </root>
    </mxGraphModel>
  </diagram>
  <diagram id="CLdpf4BRu9-fOY8DZ388" name="dl">
    <mxGraphModel dx="981" dy="493" grid="1" gridSize="10" guides="1" tooltips="1" connect="1" arrows="1" fold="1" page="1" pageScale="1" pageWidth="827" pageHeight="1169" math="0" shadow="0">
      <root>
        <mxCell id="jzZNOECsp3H76tj4zkT0-0" />
        <mxCell id="jzZNOECsp3H76tj4zkT0-1" parent="jzZNOECsp3H76tj4zkT0-0" />
        <mxCell id="jzZNOECsp3H76tj4zkT0-2" value="" style="shape=image;verticalLabelPosition=bottom;labelBackgroundColor=#ffffff;verticalAlign=top;aspect=fixed;imageAspect=0;image=http://images2015.cnblogs.com/blog/1119747/201707/1119747-20170707133635659-888158147.png;" vertex="1" parent="jzZNOECsp3H76tj4zkT0-1">
          <mxGeometry x="130" y="10" width="520" height="396" as="geometry" />
        </mxCell>
        <mxCell id="jzZNOECsp3H76tj4zkT0-3" value="" style="shape=image;verticalLabelPosition=bottom;labelBackgroundColor=#ffffff;verticalAlign=top;aspect=fixed;imageAspect=0;image=http://images2015.cnblogs.com/blog/1119747/201707/1119747-20170707133932722-715494711.png;" vertex="1" parent="jzZNOECsp3H76tj4zkT0-1">
          <mxGeometry x="140" y="450" width="520" height="360" as="geometry" />
        </mxCell>
      </root>
    </mxGraphModel>
  </diagram>
  <diagram id="9P9lsKbG5ZtzIYZVpCCN" name="devops">
    <mxGraphModel dx="5663" dy="2037" grid="1" gridSize="10" guides="1" tooltips="1" connect="1" arrows="1" fold="1" page="1" pageScale="1" pageWidth="1600" pageHeight="1200" math="0" shadow="0">
      <root>
        <mxCell id="G00L-Fhj9TQ5ZJwMP3eG-0" />
        <mxCell id="G00L-Fhj9TQ5ZJwMP3eG-1" parent="G00L-Fhj9TQ5ZJwMP3eG-0" />
        <mxCell id="G00L-Fhj9TQ5ZJwMP3eG-18" value="" style="edgeStyle=orthogonalEdgeStyle;rounded=0;orthogonalLoop=1;jettySize=auto;html=1;" edge="1" parent="G00L-Fhj9TQ5ZJwMP3eG-1" source="G00L-Fhj9TQ5ZJwMP3eG-2" target="G00L-Fhj9TQ5ZJwMP3eG-17">
          <mxGeometry relative="1" as="geometry" />
        </mxCell>
        <mxCell id="G00L-Fhj9TQ5ZJwMP3eG-2" value="CI" style="rounded=1;whiteSpace=wrap;html=1;fillColor=#ffe6cc;strokeColor=#d79b00;" vertex="1" parent="G00L-Fhj9TQ5ZJwMP3eG-1">
          <mxGeometry x="250" y="170" width="120" height="60" as="geometry" />
        </mxCell>
        <mxCell id="G00L-Fhj9TQ5ZJwMP3eG-24" style="edgeStyle=orthogonalEdgeStyle;rounded=0;orthogonalLoop=1;jettySize=auto;html=1;exitX=0.5;exitY=0;exitDx=0;exitDy=0;entryX=0.5;entryY=1;entryDx=0;entryDy=0;" edge="1" parent="G00L-Fhj9TQ5ZJwMP3eG-1" source="G00L-Fhj9TQ5ZJwMP3eG-17" target="G00L-Fhj9TQ5ZJwMP3eG-21">
          <mxGeometry relative="1" as="geometry" />
        </mxCell>
        <mxCell id="G00L-Fhj9TQ5ZJwMP3eG-27" value="" style="edgeStyle=orthogonalEdgeStyle;rounded=0;orthogonalLoop=1;jettySize=auto;html=1;entryX=0;entryY=0.341;entryDx=0;entryDy=0;entryPerimeter=0;" edge="1" parent="G00L-Fhj9TQ5ZJwMP3eG-1" source="G00L-Fhj9TQ5ZJwMP3eG-17" target="G00L-Fhj9TQ5ZJwMP3eG-22">
          <mxGeometry relative="1" as="geometry">
            <mxPoint x="650" y="200" as="targetPoint" />
          </mxGeometry>
        </mxCell>
        <mxCell id="G00L-Fhj9TQ5ZJwMP3eG-17" value="docker&lt;br&gt;【ttsa_offline】" style="rounded=1;whiteSpace=wrap;html=1;fillColor=#ffe6cc;strokeColor=#d79b00;" vertex="1" parent="G00L-Fhj9TQ5ZJwMP3eG-1">
          <mxGeometry x="450" y="170" width="120" height="60" as="geometry" />
        </mxCell>
        <mxCell id="G00L-Fhj9TQ5ZJwMP3eG-15" style="edgeStyle=orthogonalEdgeStyle;rounded=0;orthogonalLoop=1;jettySize=auto;html=1;exitX=1;exitY=0.5;exitDx=0;exitDy=0;entryX=0;entryY=0.5;entryDx=0;entryDy=0;" edge="1" parent="G00L-Fhj9TQ5ZJwMP3eG-1" source="G00L-Fhj9TQ5ZJwMP3eG-5" target="G00L-Fhj9TQ5ZJwMP3eG-2">
          <mxGeometry relative="1" as="geometry" />
        </mxCell>
        <mxCell id="G00L-Fhj9TQ5ZJwMP3eG-5" value="git-repo" style="rounded=1;whiteSpace=wrap;html=1;fillColor=#ffe6cc;strokeColor=#d79b00;" vertex="1" parent="G00L-Fhj9TQ5ZJwMP3eG-1">
          <mxGeometry x="20" y="170" width="120" height="60" as="geometry" />
        </mxCell>
        <mxCell id="G00L-Fhj9TQ5ZJwMP3eG-14" style="edgeStyle=orthogonalEdgeStyle;rounded=0;orthogonalLoop=1;jettySize=auto;html=1;exitX=0.5;exitY=0.5;exitDx=0;exitDy=0;exitPerimeter=0;" edge="1" parent="G00L-Fhj9TQ5ZJwMP3eG-1" source="G00L-Fhj9TQ5ZJwMP3eG-13" target="G00L-Fhj9TQ5ZJwMP3eG-5">
          <mxGeometry relative="1" as="geometry">
            <Array as="points">
              <mxPoint x="-10" y="200" />
              <mxPoint x="-10" y="200" />
            </Array>
          </mxGeometry>
        </mxCell>
        <mxCell id="G00L-Fhj9TQ5ZJwMP3eG-13" value="Actor" style="shape=umlActor;verticalLabelPosition=bottom;labelBackgroundColor=#ffffff;verticalAlign=top;html=1;outlineConnect=0;" vertex="1" parent="G00L-Fhj9TQ5ZJwMP3eG-1">
          <mxGeometry x="-120" y="170" width="30" height="60" as="geometry" />
        </mxCell>
        <mxCell id="G00L-Fhj9TQ5ZJwMP3eG-16" value="push" style="text;html=1;strokeColor=none;fillColor=none;align=center;verticalAlign=middle;whiteSpace=wrap;rounded=0;" vertex="1" parent="G00L-Fhj9TQ5ZJwMP3eG-1">
          <mxGeometry x="-60" y="170" width="40" height="20" as="geometry" />
        </mxCell>
        <mxCell id="G00L-Fhj9TQ5ZJwMP3eG-19" value=".gitlab-ci.yml" style="rounded=1;whiteSpace=wrap;html=1;" vertex="1" parent="G00L-Fhj9TQ5ZJwMP3eG-1">
          <mxGeometry x="20" y="230" width="120" height="30" as="geometry" />
        </mxCell>
        <mxCell id="G00L-Fhj9TQ5ZJwMP3eG-21" value="dockerfile" style="rounded=1;whiteSpace=wrap;html=1;" vertex="1" parent="G00L-Fhj9TQ5ZJwMP3eG-1">
          <mxGeometry x="450" y="100" width="120" height="30" as="geometry" />
        </mxCell>
        <mxCell id="G00L-Fhj9TQ5ZJwMP3eG-22" value="ttsa_offline&lt;br&gt;docker-compose" style="rounded=1;whiteSpace=wrap;html=1;horizontal=1;verticalAlign=top;fontSize=24;fontStyle=1;fillColor=#d5e8d4;strokeColor=#82b366;" vertex="1" parent="G00L-Fhj9TQ5ZJwMP3eG-1">
          <mxGeometry x="700" y="60" width="290" height="410" as="geometry" />
        </mxCell>
        <mxCell id="G00L-Fhj9TQ5ZJwMP3eG-25" style="edgeStyle=orthogonalEdgeStyle;rounded=0;orthogonalLoop=1;jettySize=auto;html=1;exitX=1;exitY=0.5;exitDx=0;exitDy=0;entryX=-0.008;entryY=0.608;entryDx=0;entryDy=0;entryPerimeter=0;" edge="1" parent="G00L-Fhj9TQ5ZJwMP3eG-1" source="G00L-Fhj9TQ5ZJwMP3eG-23" target="G00L-Fhj9TQ5ZJwMP3eG-22">
          <mxGeometry relative="1" as="geometry" />
        </mxCell>
        <mxCell id="G00L-Fhj9TQ5ZJwMP3eG-23" value="docker&lt;br&gt;【ue4_demo】" style="rounded=1;whiteSpace=wrap;html=1;fillColor=#ffe6cc;strokeColor=#d79b00;" vertex="1" parent="G00L-Fhj9TQ5ZJwMP3eG-1">
          <mxGeometry x="450" y="280" width="120" height="60" as="geometry" />
        </mxCell>
        <mxCell id="G00L-Fhj9TQ5ZJwMP3eG-28" value="&lt;h1&gt;&lt;span style=&quot;font-size: 12px ; font-weight: normal&quot;&gt;docker-compose ps&lt;/span&gt;&lt;br&gt;&lt;/h1&gt;&lt;p&gt;docker-compose pull&lt;/p&gt;&lt;p&gt;docker-compose up -d&lt;/p&gt;&lt;p&gt;docker restart/start/stop&lt;/p&gt;&lt;p&gt;docker images&lt;/p&gt;" style="text;html=1;strokeColor=none;fillColor=none;spacing=5;spacingTop=-20;whiteSpace=wrap;overflow=hidden;rounded=0;" vertex="1" parent="G00L-Fhj9TQ5ZJwMP3eG-1">
          <mxGeometry x="760" y="280" width="190" height="170" as="geometry" />
        </mxCell>
        <mxCell id="G00L-Fhj9TQ5ZJwMP3eG-31" value="1" style="ellipse;whiteSpace=wrap;html=1;aspect=fixed;fontSize=24;fillColor=#d5e8d4;strokeColor=#82b366;" vertex="1" parent="G00L-Fhj9TQ5ZJwMP3eG-1">
          <mxGeometry x="-60" y="140" width="25" height="25" as="geometry" />
        </mxCell>
        <mxCell id="G00L-Fhj9TQ5ZJwMP3eG-32" value="2" style="ellipse;whiteSpace=wrap;html=1;aspect=fixed;fontSize=24;fillColor=#d5e8d4;strokeColor=#82b366;" vertex="1" parent="G00L-Fhj9TQ5ZJwMP3eG-1">
          <mxGeometry x="390" y="145" width="25" height="25" as="geometry" />
        </mxCell>
        <mxCell id="G00L-Fhj9TQ5ZJwMP3eG-34" value="3" style="ellipse;whiteSpace=wrap;html=1;aspect=fixed;fontSize=24;fillColor=#f8cecc;strokeColor=#b85450;" vertex="1" parent="G00L-Fhj9TQ5ZJwMP3eG-1">
          <mxGeometry x="880" y="330" width="25" height="25" as="geometry" />
        </mxCell>
        <mxCell id="G00L-Fhj9TQ5ZJwMP3eG-44" style="edgeStyle=orthogonalEdgeStyle;rounded=0;orthogonalLoop=1;jettySize=auto;html=1;exitX=0.75;exitY=1;exitDx=0;exitDy=0;entryX=0.5;entryY=0;entryDx=0;entryDy=0;fontSize=12;" edge="1" parent="G00L-Fhj9TQ5ZJwMP3eG-1" source="G00L-Fhj9TQ5ZJwMP3eG-35" target="G00L-Fhj9TQ5ZJwMP3eG-43">
          <mxGeometry relative="1" as="geometry" />
        </mxCell>
        <mxCell id="G00L-Fhj9TQ5ZJwMP3eG-35" value="ttsa_offline" style="rounded=1;whiteSpace=wrap;html=1;fontSize=24;fillColor=#ffe6cc;strokeColor=#d79b00;" vertex="1" parent="G00L-Fhj9TQ5ZJwMP3eG-1">
          <mxGeometry x="770" y="145" width="120" height="60" as="geometry" />
        </mxCell>
        <mxCell id="G00L-Fhj9TQ5ZJwMP3eG-36" value="ue4_demo" style="rounded=1;whiteSpace=wrap;html=1;fontSize=24;fillColor=#ffe6cc;strokeColor=#d79b00;" vertex="1" parent="G00L-Fhj9TQ5ZJwMP3eG-1">
          <mxGeometry x="710" y="220" width="120" height="60" as="geometry" />
        </mxCell>
        <mxCell id="G00L-Fhj9TQ5ZJwMP3eG-38" style="edgeStyle=orthogonalEdgeStyle;rounded=0;orthogonalLoop=1;jettySize=auto;html=1;exitX=0;exitY=0.5;exitDx=0;exitDy=0;entryX=1;entryY=0.5;entryDx=0;entryDy=0;fontSize=24;" edge="1" parent="G00L-Fhj9TQ5ZJwMP3eG-1" source="G00L-Fhj9TQ5ZJwMP3eG-37" target="G00L-Fhj9TQ5ZJwMP3eG-35">
          <mxGeometry relative="1" as="geometry">
            <Array as="points">
              <mxPoint x="960" y="155" />
              <mxPoint x="960" y="175" />
            </Array>
          </mxGeometry>
        </mxCell>
        <mxCell id="G00L-Fhj9TQ5ZJwMP3eG-37" value="config/config_offline.py" style="rounded=1;whiteSpace=wrap;html=1;fontSize=14;" vertex="1" parent="G00L-Fhj9TQ5ZJwMP3eG-1">
          <mxGeometry x="1080" y="119" width="300" height="60" as="geometry" />
        </mxCell>
        <mxCell id="G00L-Fhj9TQ5ZJwMP3eG-40" style="edgeStyle=orthogonalEdgeStyle;rounded=0;orthogonalLoop=1;jettySize=auto;html=1;exitX=0;exitY=0.5;exitDx=0;exitDy=0;entryX=1;entryY=0.75;entryDx=0;entryDy=0;fontSize=24;" edge="1" parent="G00L-Fhj9TQ5ZJwMP3eG-1" source="G00L-Fhj9TQ5ZJwMP3eG-39" target="G00L-Fhj9TQ5ZJwMP3eG-35">
          <mxGeometry relative="1" as="geometry">
            <Array as="points">
              <mxPoint x="960" y="250" />
              <mxPoint x="960" y="190" />
            </Array>
          </mxGeometry>
        </mxCell>
        <mxCell id="G00L-Fhj9TQ5ZJwMP3eG-39" value="/data/ttsa_offline/results:/data/ttsa_offline/results" style="rounded=1;whiteSpace=wrap;html=1;fontSize=12;" vertex="1" parent="G00L-Fhj9TQ5ZJwMP3eG-1">
          <mxGeometry x="1090" y="214" width="290" height="60" as="geometry" />
        </mxCell>
        <mxCell id="G00L-Fhj9TQ5ZJwMP3eG-43" value="docker&lt;br&gt;TTSA" style="rounded=1;whiteSpace=wrap;html=1;fillColor=#ffe6cc;strokeColor=#d79b00;" vertex="1" parent="G00L-Fhj9TQ5ZJwMP3eG-1">
          <mxGeometry x="1130" y="450" width="120" height="60" as="geometry" />
        </mxCell>
        <mxCell id="G00L-Fhj9TQ5ZJwMP3eG-45" value="xmov-ue4-ttsa-8084" style="rounded=1;whiteSpace=wrap;html=1;horizontal=1;verticalAlign=top;fontSize=24;fontStyle=1;fillColor=#d5e8d4;strokeColor=#82b366;" vertex="1" parent="G00L-Fhj9TQ5ZJwMP3eG-1">
          <mxGeometry x="700" y="560" width="350" height="410" as="geometry" />
        </mxCell>
        <mxCell id="G00L-Fhj9TQ5ZJwMP3eG-46" value="webrtc_proxy" style="rounded=1;whiteSpace=wrap;html=1;fontSize=24;fillColor=#ffe6cc;strokeColor=#d79b00;" vertex="1" parent="G00L-Fhj9TQ5ZJwMP3eG-1">
          <mxGeometry x="710" y="830" width="250" height="60" as="geometry" />
        </mxCell>
        <mxCell id="G00L-Fhj9TQ5ZJwMP3eG-47" value="ttsa_backend_offline" style="rounded=1;whiteSpace=wrap;html=1;fontSize=24;fillColor=#ffe6cc;strokeColor=#d79b00;" vertex="1" parent="G00L-Fhj9TQ5ZJwMP3eG-1">
          <mxGeometry x="720" y="630" width="230" height="60" as="geometry" />
        </mxCell>
        <mxCell id="G00L-Fhj9TQ5ZJwMP3eG-49" value="cirrus" style="rounded=1;whiteSpace=wrap;html=1;fontSize=24;fillColor=#ffe6cc;strokeColor=#d79b00;" vertex="1" parent="G00L-Fhj9TQ5ZJwMP3eG-1">
          <mxGeometry x="710" y="760" width="250" height="60" as="geometry" />
        </mxCell>
        <mxCell id="G00L-Fhj9TQ5ZJwMP3eG-50" value="ue_streaming" style="rounded=1;whiteSpace=wrap;html=1;fontSize=24;fillColor=#ffe6cc;strokeColor=#d79b00;" vertex="1" parent="G00L-Fhj9TQ5ZJwMP3eG-1">
          <mxGeometry x="710" y="900" width="250" height="60" as="geometry" />
        </mxCell>
        <mxCell id="G00L-Fhj9TQ5ZJwMP3eG-52" style="edgeStyle=orthogonalEdgeStyle;rounded=0;orthogonalLoop=1;jettySize=auto;html=1;exitX=0.75;exitY=1;exitDx=0;exitDy=0;entryX=1;entryY=0.5;entryDx=0;entryDy=0;fontSize=12;" edge="1" parent="G00L-Fhj9TQ5ZJwMP3eG-1" source="G00L-Fhj9TQ5ZJwMP3eG-39" target="G00L-Fhj9TQ5ZJwMP3eG-47">
          <mxGeometry relative="1" as="geometry" />
        </mxCell>
        <mxCell id="G00L-Fhj9TQ5ZJwMP3eG-53" style="edgeStyle=orthogonalEdgeStyle;rounded=0;orthogonalLoop=1;jettySize=auto;html=1;exitX=0.75;exitY=1;exitDx=0;exitDy=0;fontSize=12;" edge="1" parent="G00L-Fhj9TQ5ZJwMP3eG-1" source="G00L-Fhj9TQ5ZJwMP3eG-39">
          <mxGeometry relative="1" as="geometry">
            <mxPoint x="960" y="940" as="targetPoint" />
            <Array as="points">
              <mxPoint x="1307" y="940" />
              <mxPoint x="960" y="940" />
            </Array>
          </mxGeometry>
        </mxCell>
        <mxCell id="G00L-Fhj9TQ5ZJwMP3eG-54" value="" style="endArrow=classic;html=1;fontSize=12;exitX=1.003;exitY=0.371;exitDx=0;exitDy=0;exitPerimeter=0;entryX=1;entryY=0.5;entryDx=0;entryDy=0;" edge="1" parent="G00L-Fhj9TQ5ZJwMP3eG-1" source="G00L-Fhj9TQ5ZJwMP3eG-50" target="G00L-Fhj9TQ5ZJwMP3eG-46">
          <mxGeometry width="50" height="50" relative="1" as="geometry">
            <mxPoint x="1120" y="870" as="sourcePoint" />
            <mxPoint x="1170" y="820" as="targetPoint" />
            <Array as="points">
              <mxPoint x="990" y="922" />
              <mxPoint x="990" y="860" />
            </Array>
          </mxGeometry>
        </mxCell>
        <mxCell id="G00L-Fhj9TQ5ZJwMP3eG-57" value="Actor" style="shape=umlActor;verticalLabelPosition=bottom;labelBackgroundColor=#ffffff;verticalAlign=top;html=1;outlineConnect=0;fontSize=12;" vertex="1" parent="G00L-Fhj9TQ5ZJwMP3eG-1">
          <mxGeometry x="550" y="760" width="30" height="60" as="geometry" />
        </mxCell>
        <mxCell id="G00L-Fhj9TQ5ZJwMP3eG-59" value="" style="endArrow=classic;html=1;fontSize=12;exitX=0;exitY=0.5;exitDx=0;exitDy=0;" edge="1" parent="G00L-Fhj9TQ5ZJwMP3eG-1" source="G00L-Fhj9TQ5ZJwMP3eG-49" target="G00L-Fhj9TQ5ZJwMP3eG-57">
          <mxGeometry width="50" height="50" relative="1" as="geometry">
            <mxPoint x="640" y="860" as="sourcePoint" />
            <mxPoint x="690" y="810" as="targetPoint" />
          </mxGeometry>
        </mxCell>
        <mxCell id="G00L-Fhj9TQ5ZJwMP3eG-61" value="" style="endArrow=classic;html=1;fontSize=12;exitX=1;exitY=0.25;exitDx=0;exitDy=0;entryX=1;entryY=0.5;entryDx=0;entryDy=0;" edge="1" parent="G00L-Fhj9TQ5ZJwMP3eG-1" source="G00L-Fhj9TQ5ZJwMP3eG-46" target="G00L-Fhj9TQ5ZJwMP3eG-49">
          <mxGeometry width="50" height="50" relative="1" as="geometry">
            <mxPoint x="1090" y="800" as="sourcePoint" />
            <mxPoint x="1140" y="750" as="targetPoint" />
            <Array as="points">
              <mxPoint x="990" y="845" />
              <mxPoint x="990" y="790" />
            </Array>
          </mxGeometry>
        </mxCell>
        <mxCell id="G00L-Fhj9TQ5ZJwMP3eG-65" value="" style="endArrow=classic;html=1;fontSize=12;exitX=1;exitY=0.25;exitDx=0;exitDy=0;entryX=1;entryY=0.75;entryDx=0;entryDy=0;" edge="1" parent="G00L-Fhj9TQ5ZJwMP3eG-1" source="G00L-Fhj9TQ5ZJwMP3eG-49" target="G00L-Fhj9TQ5ZJwMP3eG-47">
          <mxGeometry width="50" height="50" relative="1" as="geometry">
            <mxPoint x="1100" y="780" as="sourcePoint" />
            <mxPoint x="1150" y="730" as="targetPoint" />
            <Array as="points">
              <mxPoint x="990" y="775" />
              <mxPoint x="990" y="675" />
            </Array>
          </mxGeometry>
        </mxCell>
        <mxCell id="G00L-Fhj9TQ5ZJwMP3eG-66" value="" style="endArrow=classic;html=1;fontSize=12;entryX=0;entryY=0.75;entryDx=0;entryDy=0;" edge="1" parent="G00L-Fhj9TQ5ZJwMP3eG-1" target="G00L-Fhj9TQ5ZJwMP3eG-49">
          <mxGeometry width="50" height="50" relative="1" as="geometry">
            <mxPoint x="590" y="805" as="sourcePoint" />
            <mxPoint x="630" y="800" as="targetPoint" />
          </mxGeometry>
        </mxCell>
        <mxCell id="G00L-Fhj9TQ5ZJwMP3eG-67" value="1" style="ellipse;whiteSpace=wrap;html=1;aspect=fixed;fontSize=12;fillColor=#008a00;strokeColor=#005700;fontColor=#ffffff;" vertex="1" parent="G00L-Fhj9TQ5ZJwMP3eG-1">
          <mxGeometry x="640" y="810" width="20" height="20" as="geometry" />
        </mxCell>
        <mxCell id="G00L-Fhj9TQ5ZJwMP3eG-69" value="2" style="ellipse;whiteSpace=wrap;html=1;aspect=fixed;fontSize=12;fillColor=#008a00;strokeColor=#005700;fontColor=#ffffff;" vertex="1" parent="G00L-Fhj9TQ5ZJwMP3eG-1">
          <mxGeometry x="970" y="720" width="20" height="20" as="geometry" />
        </mxCell>
        <mxCell id="G00L-Fhj9TQ5ZJwMP3eG-71" value="" style="endArrow=classic;html=1;fontSize=12;exitX=0.998;exitY=0.603;exitDx=0;exitDy=0;entryX=1;entryY=0.5;entryDx=0;entryDy=0;exitPerimeter=0;" edge="1" parent="G00L-Fhj9TQ5ZJwMP3eG-1" source="G00L-Fhj9TQ5ZJwMP3eG-47" target="G00L-Fhj9TQ5ZJwMP3eG-50">
          <mxGeometry width="50" height="50" relative="1" as="geometry">
            <mxPoint x="1130" y="740" as="sourcePoint" />
            <mxPoint x="1180" y="690" as="targetPoint" />
            <Array as="points">
              <mxPoint x="1020" y="666" />
              <mxPoint x="1020" y="930" />
            </Array>
          </mxGeometry>
        </mxCell>
        <mxCell id="G00L-Fhj9TQ5ZJwMP3eG-72" value="3" style="ellipse;whiteSpace=wrap;html=1;aspect=fixed;fontSize=12;fillColor=#008a00;strokeColor=#005700;fontColor=#ffffff;" vertex="1" parent="G00L-Fhj9TQ5ZJwMP3eG-1">
          <mxGeometry x="1020" y="720" width="20" height="20" as="geometry" />
        </mxCell>
        <mxCell id="G00L-Fhj9TQ5ZJwMP3eG-73" value="4" style="ellipse;whiteSpace=wrap;html=1;aspect=fixed;fontSize=12;fillColor=#008a00;strokeColor=#005700;fontColor=#ffffff;" vertex="1" parent="G00L-Fhj9TQ5ZJwMP3eG-1">
          <mxGeometry x="970" y="880" width="20" height="20" as="geometry" />
        </mxCell>
        <mxCell id="G00L-Fhj9TQ5ZJwMP3eG-74" value="5" style="ellipse;whiteSpace=wrap;html=1;aspect=fixed;fontSize=12;fillColor=#008a00;strokeColor=#005700;fontColor=#ffffff;" vertex="1" parent="G00L-Fhj9TQ5ZJwMP3eG-1">
          <mxGeometry x="970" y="810" width="20" height="20" as="geometry" />
        </mxCell>
        <mxCell id="G00L-Fhj9TQ5ZJwMP3eG-75" value="6" style="ellipse;whiteSpace=wrap;html=1;aspect=fixed;fontSize=12;fillColor=#008a00;strokeColor=#005700;fontColor=#ffffff;" vertex="1" parent="G00L-Fhj9TQ5ZJwMP3eG-1">
          <mxGeometry x="640" y="770" width="20" height="20" as="geometry" />
        </mxCell>
      </root>
    </mxGraphModel>
  </diagram>
  <diagram id="5JEZYBLQJuyOmMRlLXW_" name="design-patern">
    <mxGraphModel dx="981" dy="492" grid="1" gridSize="10" guides="1" tooltips="1" connect="1" arrows="1" fold="1" page="1" pageScale="1" pageWidth="1600" pageHeight="1200" math="0" shadow="0">
      <root>
        <mxCell id="emk8OBwH6LMmbpy6p0IN-0" />
        <mxCell id="emk8OBwH6LMmbpy6p0IN-1" parent="emk8OBwH6LMmbpy6p0IN-0" />
        <mxCell id="emk8OBwH6LMmbpy6p0IN-11" value="" style="rounded=0;whiteSpace=wrap;html=1;fontSize=12;fillColor=#f5f5f5;strokeColor=#666666;fontColor=#333333;" vertex="1" parent="emk8OBwH6LMmbpy6p0IN-1">
          <mxGeometry x="260" y="240" width="300" height="190" as="geometry" />
        </mxCell>
        <mxCell id="emk8OBwH6LMmbpy6p0IN-8" value="1. 单例模式" style="text;html=1;align=left;verticalAlign=middle;resizable=0;points=[];autosize=1;fontSize=18;" vertex="1" parent="emk8OBwH6LMmbpy6p0IN-1">
          <mxGeometry x="265" y="245" width="110" height="30" as="geometry" />
        </mxCell>
        <mxCell id="emk8OBwH6LMmbpy6p0IN-12" value="创造类" style="text;html=1;strokeColor=none;fillColor=none;align=center;verticalAlign=middle;whiteSpace=wrap;rounded=0;fontSize=18;" vertex="1" parent="emk8OBwH6LMmbpy6p0IN-1">
          <mxGeometry x="490" y="250" width="60" height="20" as="geometry" />
        </mxCell>
        <mxCell id="emk8OBwH6LMmbpy6p0IN-13" value="&lt;font style=&quot;font-size: 12px;&quot;&gt;Singleton Pattern&lt;/font&gt;" style="text;html=1;strokeColor=none;fillColor=none;align=left;verticalAlign=middle;whiteSpace=wrap;rounded=0;fontSize=12;" vertex="1" parent="emk8OBwH6LMmbpy6p0IN-1">
          <mxGeometry x="290" y="270" width="110" height="20" as="geometry" />
        </mxCell>
        <mxCell id="emk8OBwH6LMmbpy6p0IN-14" value="" style="rounded=0;whiteSpace=wrap;html=1;fontSize=12;fillColor=#f5f5f5;strokeColor=#666666;fontColor=#333333;" vertex="1" parent="emk8OBwH6LMmbpy6p0IN-1">
          <mxGeometry x="260" y="430" width="300" height="190" as="geometry" />
        </mxCell>
        <mxCell id="emk8OBwH6LMmbpy6p0IN-15" value="2. 工厂方法模式" style="text;html=1;align=left;verticalAlign=middle;resizable=0;points=[];autosize=1;fontSize=18;" vertex="1" parent="emk8OBwH6LMmbpy6p0IN-1">
          <mxGeometry x="265" y="435" width="140" height="30" as="geometry" />
        </mxCell>
        <mxCell id="emk8OBwH6LMmbpy6p0IN-19" value="创造类" style="text;html=1;strokeColor=none;fillColor=none;align=center;verticalAlign=middle;whiteSpace=wrap;rounded=0;fontSize=18;" vertex="1" parent="emk8OBwH6LMmbpy6p0IN-1">
          <mxGeometry x="490" y="440" width="60" height="20" as="geometry" />
        </mxCell>
        <mxCell id="emk8OBwH6LMmbpy6p0IN-20" value="Factory Method Pattern" style="text;html=1;strokeColor=none;fillColor=none;align=left;verticalAlign=middle;whiteSpace=wrap;rounded=0;fontSize=12;" vertex="1" parent="emk8OBwH6LMmbpy6p0IN-1">
          <mxGeometry x="290" y="460" width="140" height="20" as="geometry" />
        </mxCell>
        <mxCell id="emk8OBwH6LMmbpy6p0IN-21" value="" style="rounded=0;whiteSpace=wrap;html=1;fontSize=12;fillColor=#f5f5f5;strokeColor=#666666;fontColor=#333333;" vertex="1" parent="emk8OBwH6LMmbpy6p0IN-1">
          <mxGeometry x="560" y="240" width="300" height="190" as="geometry" />
        </mxCell>
        <mxCell id="emk8OBwH6LMmbpy6p0IN-3" value="Singleton" style="swimlane;fontStyle=0;childLayout=stackLayout;horizontal=1;startSize=26;fillColor=#ffe6cc;horizontalStack=0;resizeParent=1;resizeParentMax=0;resizeLast=0;collapsible=1;marginBottom=0;fontSize=12;strokeColor=#d79b00;" vertex="1" parent="emk8OBwH6LMmbpy6p0IN-1">
          <mxGeometry x="610" y="310" width="140" height="52" as="geometry" />
        </mxCell>
        <mxCell id="emk8OBwH6LMmbpy6p0IN-4" value="+ Instance(): Singleton" style="text;strokeColor=#d6b656;fillColor=#fff2cc;align=left;verticalAlign=top;spacingLeft=4;spacingRight=4;overflow=hidden;rotatable=0;points=[[0,0.5],[1,0.5]];portConstraint=eastwest;" vertex="1" parent="emk8OBwH6LMmbpy6p0IN-3">
          <mxGeometry y="26" width="140" height="26" as="geometry" />
        </mxCell>
        <mxCell id="emk8OBwH6LMmbpy6p0IN-7" style="edgeStyle=orthogonalEdgeStyle;rounded=0;orthogonalLoop=1;jettySize=auto;html=1;exitX=0.5;exitY=0;exitDx=0;exitDy=0;entryX=1;entryY=0.5;entryDx=0;entryDy=0;fontSize=12;" edge="1" parent="emk8OBwH6LMmbpy6p0IN-3" source="emk8OBwH6LMmbpy6p0IN-3" target="emk8OBwH6LMmbpy6p0IN-4">
          <mxGeometry relative="1" as="geometry" />
        </mxCell>
        <mxCell id="emk8OBwH6LMmbpy6p0IN-22" value="确保某个类只有一个实例，而且自行实例化并在整个系统中提供这个实例。" style="text;html=1;strokeColor=none;fillColor=none;align=left;verticalAlign=top;whiteSpace=wrap;rounded=0;fontSize=12;" vertex="1" parent="emk8OBwH6LMmbpy6p0IN-1">
          <mxGeometry x="290" y="325" width="240" height="65" as="geometry" />
        </mxCell>
        <mxCell id="emk8OBwH6LMmbpy6p0IN-23" value="" style="rounded=0;whiteSpace=wrap;html=1;fontSize=12;fillColor=#f5f5f5;strokeColor=#666666;fontColor=#333333;" vertex="1" parent="emk8OBwH6LMmbpy6p0IN-1">
          <mxGeometry x="560" y="430" width="300" height="190" as="geometry" />
        </mxCell>
        <mxCell id="emk8OBwH6LMmbpy6p0IN-16" value="Singleton" style="swimlane;fontStyle=0;childLayout=stackLayout;horizontal=1;startSize=26;fillColor=#ffe6cc;horizontalStack=0;resizeParent=1;resizeParentMax=0;resizeLast=0;collapsible=1;marginBottom=0;fontSize=12;strokeColor=#d79b00;" vertex="1" parent="emk8OBwH6LMmbpy6p0IN-1">
          <mxGeometry x="610" y="520" width="140" height="52" as="geometry" />
        </mxCell>
        <mxCell id="emk8OBwH6LMmbpy6p0IN-17" value="+ Instance(): Singleton" style="text;strokeColor=#d6b656;fillColor=#fff2cc;align=left;verticalAlign=top;spacingLeft=4;spacingRight=4;overflow=hidden;rotatable=0;points=[[0,0.5],[1,0.5]];portConstraint=eastwest;" vertex="1" parent="emk8OBwH6LMmbpy6p0IN-16">
          <mxGeometry y="26" width="140" height="26" as="geometry" />
        </mxCell>
        <mxCell id="emk8OBwH6LMmbpy6p0IN-18" style="edgeStyle=orthogonalEdgeStyle;rounded=0;orthogonalLoop=1;jettySize=auto;html=1;exitX=0.5;exitY=0;exitDx=0;exitDy=0;entryX=1;entryY=0.5;entryDx=0;entryDy=0;fontSize=12;" edge="1" parent="emk8OBwH6LMmbpy6p0IN-16" source="emk8OBwH6LMmbpy6p0IN-16" target="emk8OBwH6LMmbpy6p0IN-17">
          <mxGeometry relative="1" as="geometry" />
        </mxCell>
      </root>
    </mxGraphModel>
  </diagram>
</mxfile>
